<svg width="183" height="64" viewBox="0 0 183 64" fill="none" xmlns="http://www.w3.org/2000/svg">
<path d="M5.69121 22.1227C8.04504 9.30652 19.2165 0 32.247 0H152.59C169.455 0 182.192 15.2897 179.145 31.8773L177.309 41.8773C174.955 54.6935 163.784 64 150.753 64H30.4104C13.5455 64 0.808123 48.7103 3.8546 32.1227L5.69121 22.1227Z" fill="white"/>
<path d="M7.56496 11.9205C8.83386 5.01155 14.7967 0 21.7483 0H167.65C176.672 0 183.48 8.27734 181.833 17.2441L175.435 52.0795C174.166 58.9884 168.203 64 161.252 64H15.3504C6.32839 64 -0.479778 55.7227 1.16706 46.7559L7.56496 11.9205Z" fill="white"/>
</svg>
