<svg width="328" height="114" viewBox="0 0 328 114" fill="none" xmlns="http://www.w3.org/2000/svg">
<path d="M12.1357 22.0533C14.5182 9.26943 25.6748 0 38.6787 0H300.503C317.397 0 330.141 15.339 327.046 31.9467L315.864 91.9467C313.482 104.731 302.325 114 289.321 114H27.4968C10.6031 114 -2.14134 98.661 0.953778 82.0533L12.1357 22.0533Z" fill="#F55656"/>
<path d="M12.2885 21.2334C14.5821 8.92682 25.3599 0 37.9248 0H301.639C317.947 0 330.252 14.744 327.276 30.716L315.711 92.7666C313.418 105.073 302.64 114 290.075 114H26.3606C10.0535 114 -2.25222 99.256 0.72441 83.284L12.2885 21.2334Z" fill="#F55656"/>
</svg>
